<?xml version="1.0" encoding="UTF-8"?>
<svg id="Layer_1" xmlns="http://www.w3.org/2000/svg" version="1.1" viewBox="0 0 1920 1080">
  <!-- Generator: Adobe Illustrator 29.3.0, SVG Export Plug-In . SVG Version: 2.1.0 Build 146)  -->
  <defs>
    <style>
      .st0 {
        fill: #ff1729;
      }

      .st1 {
        fill: #d4ff17;
      }

      .st2 {
        fill: #ff000d;
      }

      .st3 {
        fill: #e7000c;
      }

      .st4 {
        fill: #2b17ff;
      }

      .st5 {
        font-family: Chalkduster, Chalkduster;
        font-size: 79px;
      }
    </style>
  </defs>
  <g>
    <polygon class="st4" points="354.49 583.95 352.29 322.86 577.3 190.41 804.51 319.05 806.71 580.14 581.7 712.59 354.49 583.95"/>
    <path d="M577.31,190.99l226.71,128.36,2.19,260.51-224.52,132.16-226.71-128.36-2.19-260.51,224.52-132.15M577.3,189.83l-225.51,132.74,2.2,261.67,227.71,128.93,225.51-132.74-2.2-261.67-227.71-128.93h0Z"/>
  </g>
  <g>
    <polygon class="st2" points="364.44 578.09 362.34 328.55 577.4 201.95 794.56 324.91 796.66 574.46 581.6 701.05 364.44 578.09"/>
    <path d="M577.41,202.53l216.66,122.67,2.09,248.97-214.57,126.3-216.66-122.67-2.09-248.97,214.57-126.3M577.4,201.38l-215.56,126.88,2.1,250.12,217.66,123.24,215.56-126.88-2.1-250.12-217.66-123.24h0Z"/>
  </g>
  <g>
    <polygon class="st3" points="804.43 562.67 787.15 317.7 977.66 205.56 1183.46 339.57 1200.74 584.54 1010.23 696.68 804.43 562.67"/>
    <path class="st0" d="M977.65,206.14l205.33,133.71,17.24,244.42-189.98,111.83-205.33-133.71-17.24-244.42,189.98-111.83M977.68,204.97l-191.05,112.46,17.32,245.53,206.27,134.32,191.05-112.46-17.32-245.53-206.27-134.32h0Z"/>
  </g>
  <g>
    <polygon class="st1" points="814.05 557.01 797.56 323.17 977.4 217.32 1173.84 345.23 1190.33 579.07 1010.49 684.92 814.05 557.01"/>
    <path d="M977.38,217.9l195.97,127.61,16.46,233.28-179.31,105.54-195.97-127.61-16.46-233.28,179.31-105.54M977.41,216.73l-180.37,106.17,16.53,234.39,196.91,128.22,180.37-106.17-16.53-234.39-196.91-128.22h0Z"/>
  </g>
  <text/>
  <text/>
  <text/>
  <text class="st5" transform="translate(519.28 609.81) rotate(-25.34)"><tspan x="0" y="0">IrREGularity</tspan></text>
</svg>